<?xml version="1.0" encoding="utf-8"?>
<!-- Generator: Adobe Illustrator 18.1.1, SVG Export Plug-In . SVG Version: 6.00 Build 0)  -->
<!DOCTYPE svg PUBLIC "-//W3C//DTD SVG 1.1//EN" "http://www.w3.org/Graphics/SVG/1.1/DTD/svg11.dtd">
<svg version="1.1" id="Layer_7" xmlns="http://www.w3.org/2000/svg" xmlns:xlink="http://www.w3.org/1999/xlink" x="0px" y="0px"
	 viewBox="0 0 1000 1000" enable-background="new 0 0 1000 1000" xml:space="preserve">
<g>
	<circle opacity="0.3" enable-background="new    " cx="500" cy="500" r="500"/>
	<path fill="#FFFFFF" d="M338.5,755.8V251.9c0-19.2,21.2-30.8,38.5-21.2l392.3,248.1c15.4,9.6,15.4,32.7,0,42.3L376.9,776.9
		C359.6,786.5,338.5,775,338.5,755.8z"/>
	<path fill="#FFFFFF" d="M500,92.3C725,92.3,907.7,275,907.7,500S725,907.7,500,907.7S92.3,725,92.3,500S275,92.3,500,92.3
		 M500,59.6C255.8,59.6,59.6,257.7,59.6,500c0,244.2,198.1,440.4,440.4,440.4c244.2,0,440.4-198.1,440.4-440.4
		C940.4,255.8,744.2,59.6,500,59.6L500,59.6z"/>
	<g display="none">
		<path display="inline" d="M567.3,476.9v-28.8c0-40.4-32.7-73.1-73.1-73.1c-40.4,0-73.1,32.7-73.1,73.1v28.8h-25v136.5h194.2V476.9
			H567.3z M538.5,476.9h-86.5v-28.8c0-23.1,19.2-44.2,44.2-44.2c23.1,0,44.2,19.2,44.2,44.2L538.5,476.9L538.5,476.9z"/>
	</g>
</g>
</svg>
